<svg xmlns="http://www.w3.org/2000/svg" xmlns:xlink="http://www.w3.org/1999/xlink" viewBox="0 0 200 175.68"><defs><style>.cls-1{fill:url(#radial-gradient);}.cls-2{fill:url(#radial-gradient-2);}.cls-3{fill:url(#radial-gradient-3);}.cls-4{fill:url(#radial-gradient-4);}</style><radialGradient id="radial-gradient" cx="99.31" cy="93.92" r="95.95" gradientTransform="translate(-0.65 -0.73) scale(1.01 0.94)" gradientUnits="userSpaceOnUse"><stop offset="0" stop-color="#9e6c29"/><stop offset="0.23" stop-color="#d0952b"/><stop offset="0.41" stop-color="#af7d2b"/><stop offset="0.59" stop-color="#eebb58"/><stop offset="0.77" stop-color="#ffd89c"/><stop offset="1" stop-color="#be8b2c"/><stop offset="1" stop-color="#cfa45e"/></radialGradient><radialGradient id="radial-gradient-2" cx="99.27" cy="93.52" r="61.79" xlink:href="#radial-gradient"/><radialGradient id="radial-gradient-3" cx="141.9" cy="83.08" r="40.29" xlink:href="#radial-gradient"/><radialGradient id="radial-gradient-4" cx="57.08" cy="98.19" r="38.37" xlink:href="#radial-gradient"/></defs><g id="Layer_2" data-name="Layer 2"><g id="Layer_1-2" data-name="Layer 1"><path class="cls-1" d="M17,117.75c2.85,5,10.16,17.89,16.24,28.56S45.59,168,47.11,170.7l2.76,5,50.22-.13,50.24-.13,8.72-15.37c4.79-8.45,13.47-23.72,19.3-33.94s13.06-23,16.12-28.41L200,87.87l-2.49-4.46C196.14,81,189.91,70,183.68,59s-16.3-28.68-22.36-39.35L150.32.28,100.09.14,49.87,0,47.12,5C45.6,7.73,38,21.13,30.25,34.76S14.09,63.19,11.58,67.63,5.42,78.44,3.5,81.76L0,87.8,5.92,98.19C9.19,103.91,14.19,112.71,17,117.75Zm.42-50c6.26-11,16-28.19,21.66-38.13s11.05-19.44,12-21.15l1.74-3.1,47.25.14,47.25.13L155,19.13c7.26,12.75,18.59,32.68,32.59,57.35,3.43,6,6.25,11.18,6.25,11.39,0,.38-8.41,15.25-41.72,73.8L147.4,170H52.73l-6.9-12.13-20.08-35.3C18.51,109.86,11.12,96.82,9.34,93.64L6.09,87.85Z"/><path class="cls-2" d="M101.6,42.57l-2.91,5.8c-4.06,8.12-6.49,13-8.77,17.52-1.08,2.14-3,6-4.25,8.48-6.94,13.85-15.3,30.54-16.55,33-.79,1.55-3,6-4.89,9.84s-3.86,7.61-4.34,8.35a46.17,46.17,0,0,0-2.64,7l-1.75,5.66,1.52,3a38.92,38.92,0,0,0,1.89,3.41c.2.24,3.05-5,6.34-11.59s6.84-13.72,7.88-15.79L89.85,83.8l16.72-33.41c5.75-11.44,8.14-16.33,8.14-16.63s-10.62-.34-23.6-.34H67.53V31.81A5.61,5.61,0,0,1,69,28.44l1.47-1.76,27.69-.15c15.24-.08,27.7,0,27.7.18s-7.26,15-15.47,31.22c-.9,1.78-2.9,5.78-4.44,8.89l-21,42c-24.18,48.22-23.73,47.32-23.45,47.63.53.57,71.25,1,72.58.44s2-1.77,11.44-20.44a35.65,35.65,0,0,0,1.7-3.64c0-.15-10.85-.28-24.1-.28-17,0-24.1-.18-24.1-.59a31.42,31.42,0,0,1,2.1-4.71l3.74-7.36c.9-1.78,2.68-5.3,3.92-7.82,5.64-11.31,8.11-16.24,19.31-38.58L140,49.75l.32-7.49c.19-4.12.45-8.59.62-9.92l.26-2.43L140,32.07c-.67,1.18-2.77,5.31-4.68,9.16-4.43,8.93-5,10-22.1,44.18-14.88,29.69-17.54,35-21.89,43.79-1.42,2.89-3.37,6.75-4.31,8.58a30.83,30.83,0,0,0-1.71,3.64c0,.17,10.74.31,23.86.31H133l-.31,1.48a6.39,6.39,0,0,1-3.81,4.83c-1.86.68-53.76,1-54.41.35-.28-.31,1.25-3.57,6.26-13.39.75-1.49,2.64-5.24,4.19-8.36s10.17-20.33,19.16-38.26S121.55,53.47,123,50.66s3.29-6.58,4.19-8.35c1.62-3.18,3.56-7.06,8.89-17.78,1.47-3,2.9-5.7,3.18-6.07.67-.92-71.92-1-73.46,0a5.19,5.19,0,0,0-1.52,1.46c-1,1.63-4,7.4-7.71,15l-3.78,7.68H101.6Z"/><path class="cls-3" d="M146.73,52.71c1,3.31.78,3.95-8.17,21.39-1.81,3.52-8.78,17.41-12.17,24.25-1.47,3-3.77,7.57-5.11,10.24-3.8,7.56-7.08,14.5-7.08,15,0,1.1,38.89.44,40.24-.69,1.87-1.56,4.43-6.25,14.66-26.92,4.49-9,4.82-7.17-4.75-26.27-3.55-7.08-3.53-7-4.63-4.82-4.15,8.29-8,16.08-11.76,23.81-2.45,5-5.58,11.38-7,14.08-2.78,5.52-2.75,5.59,1.58,5.59,4,0,5.25-1.32,9.39-10,6.81-14.25,8-16.43,9.25-16.43,2.93,0,2.49,6.46-.94,13.78-8.57,18.33-9.41,19.32-16.74,19.82-4.68.31-15.6,0-16.1-.51-.17-.17,5.71-12.76,6.52-14,.21-.3,1.7-3.21,3.32-6.47,2.9-5.84,4.68-9.4,8.05-16,12.3-24.2,12-22.88,6.65-33.55-2.1-4.15-4.53-9.06-5.43-10.91-2.21-4.57-2.22-4.54-2.62,5.26L143.59,48l1.29,1.48A10.93,10.93,0,0,1,146.73,52.71Z"/><path class="cls-4" d="M38.51,108.3l.89,1.54,8.1-16.48c4.45-9.07,9.41-19.17,11-22.45l2.89-6-1.6-.45c-4.79-1.34-7.62.86-11.23,8.7-8,17.41-10.5,20.67-11.1,14.44a20.46,20.46,0,0,1,.19-5.15c.89-4.21,9.65-21.42,12.15-23.87l1.52-1.49H62c6.89,0,10.65.2,10.65.56,0,.69-3.71,8.56-8,17-1.82,3.56-4.22,8.29-5.33,10.51s-2.78,5.5-3.69,7.27c-13.15,25.87-13.15,25.9-4.37,41.24l1,1.69,1.82-5.8c1.57-5,1.73-5.92,1.14-6.64-3.71-4.51-3.57-5.08,6.39-24.56,1.82-3.56,4.34-8.53,5.59-11s5-10,8.39-16.7c5.16-10.29,10-20.18,10.68-21.69.44-1-37.61-.42-39.77.61-2.32,1.12-3.13,2.54-12.9,22.06-7,14-6.94,12.57-.8,25.15C35.42,102.24,38,107.45,38.51,108.3Z"/></g></g></svg>